<svg width="3938" height="2475" xmlns="http://www.w3.org/2000/svg" xmlns:xlink="http://www.w3.org/1999/xlink" overflow="hidden"><defs><clipPath id="clip0"><rect x="231" y="0" width="3938" height="2475"/></clipPath><linearGradient x1="2057.7" y1="1469.41" x2="2114.48" y2="1435.86" gradientUnits="userSpaceOnUse" spreadMethod="pad" id="fill1"><stop offset="0" stop-color="#909CA9"/><stop offset="1" stop-color="#EDEDEE"/></linearGradient><linearGradient x1="2059.94" y1="358.077" x2="2105.63" y2="358.077" gradientUnits="userSpaceOnUse" spreadMethod="pad" id="fill2"><stop offset="0" stop-color="#939FAB"/><stop offset="1" stop-color="#DCDEE1"/></linearGradient><radialGradient cx="-9757.83" cy="-5920.93" r="898.12" gradientUnits="userSpaceOnUse" spreadMethod="pad" id="fill3" gradientTransform="matrix(-0.064866 -0.00974549 0.0197099 -0.129732 1948.52 -137.88)"><stop offset="0" stop-color="#EE352C"/><stop offset="1" stop-color="#A91D22"/></radialGradient><clipPath id="clip4"><rect x="1227" y="240" width="1908" height="1954"/></clipPath><clipPath id="clip5"><rect x="1227" y="240" width="1908" height="1954"/></clipPath><clipPath id="clip6"><rect x="1227" y="240" width="1908" height="1954"/></clipPath></defs><g clip-path="url(#clip0)" transform="translate(-231 0)"><path d="M2644.79 870.545 2368.72 960.674 2128.54 1066.68 2061.34 1084.43C2044.21 1100.71 2026.29 1117.21 2006.89 1133.88 1985.61 1152.26 1965.81 1168.93 1950.56 1181.05 1933.66 1194.42 1908.62 1219.46 1895.88 1235.27 1876.87 1259.06 1861.85 1284.32 1855.42 1303.72 1843.93 1338.78 1849.56 1374.22 1871.69 1407 1900.09 1448.71 1956.65 1491.27 2022.54 1520.29 2056.11 1535.08 2112.67 1554.08 2155.23 1564.72 2225.95 1582.65 2362.85 1602.05 2438.19 1605.01 2453.44 1605.64 2473.87 1605.64 2474.72 1605.01 2476.37 1603.99 2488.09 1581.62 2501.63 1553.91 2547.95 1459.4 2581.35 1370.7 2599.5 1294.96 2610.37 1249.04 2618.9 1187.93 2624.54 1115.5 2626.02 1095.24 2626.64 1027.42 2625.39 1004.49 2623.51 966.933 2620.16 936.492 2614.98 906.619 2614.12 902.238 2613.95 898.255 2614.35 898.084 2615.21 897.459 2617.71 896.605 2651.68 886.818L2644.79 870.545 2644.79 870.545 2644.79 870.545 2644.79 870.545ZM2581.75 907.473C2584.25 907.473 2590.91 971.542 2592.62 1012 2593.02 1020.53 2592.84 1026.17 2592.39 1026.17 2590.74 1026.17 2557.11 1006.37 2533.16 991.344 2512.27 978.2 2472.67 951.912 2466.41 946.905 2464.31 945.425 2464.53 945.255 2481.66 939.394 2510.62 929.607 2579.47 907.473 2581.75 907.473ZM2441.15 953.79C2443.03 953.79 2447.81 956.521 2459.3 963.576 2502.26 990.49 2560.7 1023.04 2585.73 1033.9 2593.47 1037.26 2594.27 1036.01 2576.57 1048.07 2538.62 1073.96 2491.22 1099.4 2433.24 1125.06 2423 1129.67 2414.46 1133.2 2414.24 1133.2 2413.84 1133.2 2415.09 1127.96 2416.74 1121.7 2430.74 1069.75 2438.65 1017.18 2439.04 975.013 2439.27 954.131 2439.27 954.131 2441.15 953.505 2440.69 953.79 2440.92 953.79 2441.15 953.79L2441.15 953.79ZM2412.13 964.828C2413.38 966.08 2412.53 1012.79 2410.88 1025.54 2407.12 1055.98 2401.26 1084.38 2391.7 1116.3 2389.43 1124.03 2387.32 1130.46 2386.92 1130.92 2386.07 1131.94 2357.51 1104.01 2348.12 1093.14 2331.84 1074.36 2319.1 1055.58 2309.71 1037.2 2304.93 1027.82 2297.42 1009.44 2298.05 1008.81 2301.35 1006.59 2411.28 964.032 2412.13 964.828L2412.13 964.828ZM2275.68 1018.48C2275.91 1018.48 2276.08 1018.48 2276.31 1018.71 2276.71 1019.11 2278.19 1022.47 2279.44 1026.22 2286.1 1044.37 2301.12 1071.06 2314.09 1088.19 2328.26 1106.96 2346.87 1126.99 2362.29 1140.14 2367.29 1144.29 2371.9 1148.27 2372.53 1148.9 2373.78 1150.15 2374.18 1149.92 2340.21 1162.9 2300.78 1177.92 2257.82 1192.94 2208.54 1208.82 2196.76 1212.63 2185.04 1216.44 2173.26 1220.31 2171.39 1220.94 2172.01 1219.91 2177.42 1211.32 2201.83 1173.14 2238.98 1098.2 2259.87 1045.23 2263.39 1036.07 2266.98 1026.85 2267.6 1024.8 2268.46 1021.9 2269.48 1020.82 2272.21 1019.4 2273.58 1018.88 2275.06 1018.48 2275.68 1018.48L2275.68 1018.48ZM2233.92 1035.78C2234.55 1036.18 2223.9 1058.54 2213.49 1078.97 2193.24 1118.4 2171.16 1157.21 2141.51 1204.38 2136.51 1212.51 2131.73 1220.02 2131.1 1220.88 2130.08 1222.36 2129.62 1221.9 2126.32 1215.47 2119.21 1201.48 2113.41 1183.55 2110.28 1167.05 2107.15 1150.78 2107.77 1122.38 2111.3 1104.86 2114.03 1091.94 2113.8 1092.11 2120.06 1088.98 2146.69 1075.44 2233.12 1034.93 2233.92 1035.78L2233.92 1035.78ZM2593.87 1050.41 2593.87 1059.17C2593.87 1105.71 2588.86 1169.55 2581.58 1216.1 2580.33 1224.24 2579.3 1230.89 2579.07 1231.12 2579.07 1231.12 2573.04 1229.47 2565.93 1227.36 2534.64 1217.58 2500.61 1203.18 2469.94 1186.28 2449.68 1175.24 2420.27 1157.09 2421.12 1156.24 2421.35 1156.01 2430.11 1151.46 2440.3 1146 2481.21 1124.72 2520.41 1101.79 2554.44 1079.03 2567.18 1070.49 2586.36 1056.72 2590.51 1052.97L2593.87 1050.41 2593.87 1050.41ZM2076.36 1112.14C2077.22 1112.14 2076.99 1113.79 2075.74 1121.3 2074.88 1126.71 2073.86 1136.72 2073.46 1143.61 2071.81 1174.05 2076.82 1196.64 2091.84 1227.48 2095.99 1236.01 2099.35 1243.13 2099.12 1243.35 2097.64 1244.61 1959.55 1285.06 1916.13 1296.95 1903.22 1300.48 1891.95 1303.61 1891.1 1303.84 1889.62 1304.24 1889.45 1304.07 1890.07 1300.48 1894.85 1269.81 1918.24 1229.75 1950.78 1195.96 1972.46 1173.42 1989.82 1160.28 2019.46 1143.38 2040.74 1131.26 2073.52 1113.11 2076.02 1112.31 2075.96 1112.14 2076.19 1112.14 2076.36 1112.14L2076.36 1112.14ZM2401.89 1170.35C2402.12 1170.12 2407.12 1172.85 2413.15 1176.38 2457.82 1202.27 2520.01 1226.23 2572.99 1238.57L2577.77 1239.6 2571.11 1243.35C2543.34 1258.77 2452.19 1296.78 2358.93 1331.61 2345.39 1336.61 2332.01 1341.62 2329.51 1342.64 2327.01 1343.67 2324.73 1344.29 2324.73 1344.12 2324.73 1343.9 2328.49 1336.61 2333.27 1327.62 2359.33 1278.8 2385.61 1219.34 2398.99 1178.03 2400.64 1174.11 2401.66 1170.58 2401.89 1170.35L2401.89 1170.35ZM2368.72 1181.22C2368.94 1181.45 2367.24 1185.83 2365.19 1190.83 2347.04 1234.88 2323.25 1282.84 2292.75 1336.67 2285.02 1350.44 2278.59 1361.48 2278.36 1361.48 2278.13 1361.48 2271.87 1357.72 2264.36 1353.11 2220.15 1325.97 2180.89 1292.63 2155.23 1260.25L2151.47 1255.64 2170.48 1250.41C2238.53 1231.86 2296.28 1211.83 2353.69 1187.19 2361.83 1183.95 2368.49 1181.22 2368.72 1181.22ZM2574.86 1253.2C2574.86 1253.2 2575.09 1253.42 2574.86 1253.2 2575.09 1257.98 2564.45 1300.99 2555.69 1332.06 2548.41 1358.12 2542.15 1378.6 2530.65 1414.68 2525.65 1430.55 2521.26 1443.7 2521.04 1443.7 2520.81 1443.7 2519.56 1443.47 2518.31 1443.07 2456.34 1431.81 2400.81 1416.16 2348.69 1395.28 2334.06 1389.42 2313.24 1380.03 2311.99 1379 2311.59 1378.6 2324.11 1372.74 2339.92 1365.86 2434.89 1324.32 2533.33 1277.15 2567.13 1256.95 2571.11 1254.45 2574.24 1253.2 2574.86 1253.2L2574.86 1253.2ZM2098.95 1269.47C2099.35 1269.87 2072.89 1308.05 2035.74 1360.06 2022.82 1378.21 2007.8 1399.49 2002.17 1407.4 1996.53 1415.31 1988 1427.82 1983.16 1435.33L1974.4 1448.88 1965.01 1440.97C1953.97 1431.81 1934.74 1412.18 1926.2 1401.31 1908.28 1379 1896.16 1355.39 1891.38 1333.94 1889.11 1323.92 1889.11 1318.92 1891.15 1318.29 1894.28 1317.44 1949.99 1304.29 2002.17 1292.23 2031.18 1285.57 2064.76 1277.61 2076.88 1274.71 2088.88 1271.8 2098.72 1269.47 2098.95 1269.47L2098.95 1269.47ZM2125.64 1279.71 2132.3 1287.22C2162.34 1320.79 2193.01 1345.66 2230.16 1367.34 2236.82 1371.09 2241.83 1374.45 2241.43 1374.62 2239.95 1375.65 2112.49 1420.94 2053.43 1441.37 2020.26 1453.03 1992.95 1462.42 1992.72 1462.42 1992.49 1462.42 1990.61 1461.17 1988.57 1459.69L1984.81 1456.96 1990.84 1448.19C2010.47 1419.8 2035.05 1388.73 2088.71 1324.04L2125.64 1279.71 2125.64 1279.71ZM2292.13 1398.86C2292.36 1398.63 2301.52 1401.99 2312.78 1406.14 2339.92 1416.39 2361.38 1422.82 2390.22 1430.16 2425.67 1439.15 2477.05 1447.91 2507.27 1450.41 2511.88 1450.81 2514.38 1451.27 2513.53 1451.89 2512.05 1452.75 2481.38 1462.93 2458.84 1470.04 2422.94 1481.31 2313.41 1513.63 2224.08 1539.29 2207.57 1544.07 2193.41 1548.05 2192.55 1548.28 2190.45 1548.68 2183.56 1546.8 2183.56 1546 2183.56 1545.61 2188.57 1539.12 2194.6 1532.01 2224.64 1496.1 2254.46 1456.05 2279.33 1418.09 2286.32 1407.62 2292.13 1399.09 2292.13 1398.86L2292.13 1398.86ZM2255.43 1399.89C2255.66 1400.11 2240.8 1423.9 2214.97 1464.75 2203.93 1482.05 2191.59 1501.68 2187.2 1508.56 2183.05 1515.22 2176.79 1525.69 2173.21 1531.5L2167.18 1542.14 2164.05 1541.28C2156.54 1539.18 2103.73 1520.63 2089.73 1514.99 2072.44 1508.11 2054.46 1499.74 2041.14 1492.69 2024.47 1483.7 2003.59 1470.38 2005.24 1469.93 2005.64 1469.7 2034.26 1462.02 2068.68 1452.63 2160.06 1427.82 2210.76 1413.43 2243.93 1402.96 2250.02 1401.14 2255.2 1399.71 2255.43 1399.89L2255.43 1399.89ZM2515.18 1460.83 2515.4 1460.83C2516.26 1462.93 2482.46 1556.82 2470.11 1586.46 2467.38 1593.12 2466.36 1594.82 2464.88 1594.6 2461.35 1594.37 2412.3 1587.48 2382.43 1583.1 2330.48 1575.19 2243.25 1559.95 2221.34 1554.94L2216.34 1553.91 2247.4 1546.8C2314.21 1531.78 2346.3 1523.64 2378.84 1513.63 2419.93 1501.11 2460.67 1485.46 2501.75 1466.29 2508.29 1463.33 2513.75 1461.05 2515.18 1460.83L2515.18 1460.83Z" fill="url(#fill1)"/><path d="M2360.18 227.004C2355.57 226.378 2281.49 253.064 2233.75 272.467 2169.28 298.755 2119.21 323.791 2088.31 345.47 2076.82 353.607 2062.42 368.002 2060.15 373.635 2059.29 375.741 2058.89 378.244 2058.89 380.748L2086.83 407.263 2153.41 428.544 2311.76 456.937 2492.87 488.006 2494.75 472.357C2494.12 472.357 2493.72 472.129 2493.1 472.129L2469.31 468.374 2464.53 459.839C2439.9 416.424 2412.81 362.597 2396.94 326.295 2384.65 298.129 2372.93 265.582 2366.5 242.196 2362.85 228.085 2362.46 227.232 2360.18 227.004L2360.18 227.004 2360.18 227.004 2360.18 227.004ZM2356.82 237.644 2357.05 237.644C2357.28 237.872 2358.07 243.676 2358.93 250.561 2362.46 279.75 2368.94 307.916 2379.19 338.414 2386.92 361.345 2386.92 360.093 2377.93 357.419 2356.65 351.558 2261.29 335.114 2192.21 325.498 2181.17 324.019 2171.78 322.596 2171.78 322.369 2170.93 321.515 2221.63 295.057 2243.99 284.587 2272.55 271.443 2350.96 238.726 2356.82 237.644L2356.82 237.644ZM2155.68 331.131 2163.82 333.862C2208.03 348.884 2319.27 370.164 2380.61 375.172 2387.49 375.798 2393.35 376.424 2393.52 376.424 2393.75 376.651 2387.89 379.781 2380.38 383.308 2350.74 398.102 2318.19 416.254 2295.66 430.251 2289 434.405 2282.91 437.762 2282.11 437.762 2281.26 437.762 2276.88 436.908 2272.33 436.282L2263.96 435.031 2243.08 414.603C2206.38 378.927 2177.53 351.388 2166.49 340.975L2155.68 331.131ZM2147.32 337.618 2176.73 374.318C2192.78 394.575 2209.05 414.376 2212.64 418.757 2216.17 423.138 2219.13 426.666 2218.9 426.894 2218.04 427.52 2176.34 419.383 2154.2 414.376 2131.44 409.141 2122.05 406.637 2108.11 402.256L2096.62 398.501 2096.62 395.599C2096.85 381.601 2114.54 360.776 2144.59 339.495L2147.32 337.618 2147.32 337.618ZM2397.34 387.69C2398.19 387.69 2399.21 389.567 2401.72 395.201 2408.83 410.848 2430.91 453.011 2436.37 461.148 2438.02 463.879 2440.98 464.05 2411.56 459.27 2340.83 447.776 2318.07 444.021 2318.07 443.622 2318.07 443.395 2320.18 441.972 2322.85 440.493 2344.76 428.373 2366.89 412.953 2386.47 396.452 2391.25 392.469 2395.63 388.714 2396.48 388.088 2396.65 387.69 2397.11 387.462 2397.34 387.69L2397.34 387.69Z" fill="url(#fill2)"/><path d="M2061.57 370.79C2061.57 370.79 2056.96 378.074 2061.34 388.942 2064.07 395.599 2071.98 403.736 2080.97 412.1 2080.97 412.1 2173.83 502.686 2185.1 515.603 2236.42 574.836 2258.73 633.272 2260.83 713.842 2262.08 765.564 2252.3 811.084 2227.89 863.888 2184.47 958.626 2092.86 1063.15 1951.64 1179.17L1972.29 1172.29C1985.66 1162.27 2003.82 1151.63 2046.38 1128.24 2144.64 1074.42 2255.26 1024.97 2390.85 974.046 2586.13 900.588 2907.27 814.612 3090.09 786.674L3109.1 783.772 3106.2 779.163C3089.52 753.274 3078.03 737.228 3064.26 720.101 3024.2 670.428 2975.61 630.142 2916.09 596.799 2834.27 551.108 2728.49 515.432 2594.55 488.917 2569.29 483.908 2513.81 474.292 2468.75 467.407 2373.15 452.613 2311.42 442.371 2243.36 430.706 2218.95 426.552 2182.42 420.293 2158.24 415.059 2145.72 412.327 2121.71 406.694 2102.94 400.265 2087.86 394.347 2066.18 388.543 2061.57 370.79L2061.57 370.79ZM2115.4 422.968C2115.62 422.74 2118.92 423.992 2123.31 425.471 2131.21 428.203 2141.46 431.332 2153.58 434.632 2162.74 437.136 2171.9 439.583 2181.12 441.915 2193.63 445.045 2204.05 447.947 2204.27 447.947 2205.75 449.426 2226.81 516.798 2233.92 542.687 2236.65 552.474 2238.7 560.838 2238.53 560.838 2238.3 561.066 2236.02 557.481 2233.29 552.701 2208.88 509.742 2170.31 466.098 2125.64 431.048 2119.78 426.894 2115.4 423.138 2115.4 422.968L2115.4 422.968ZM2218.04 451.304C2219.07 451.304 2223.68 451.93 2229.31 453.182 2264.76 461.091 2328.43 473.21 2369.11 480.095 2376 481.12 2381.4 482.371 2381.4 482.827 2381.4 483.225 2378.9 484.704 2375.77 486.356 2368.89 489.884 2341.12 506.385 2331.96 512.644 2308.8 528.064 2287.92 544.792 2272.9 559.814 2266.86 565.845 2261.63 570.853 2261.63 570.853 2261.63 570.853 2260.38 567.325 2259.35 562.943 2251.84 533.924 2236.2 490.965 2222.03 460.692 2219.75 455.913 2217.87 451.532 2217.87 451.076 2217.87 451.532 2217.87 451.304 2218.04 451.304L2218.04 451.304ZM2398.76 485.785C2400.01 486.184 2402.12 493.298 2406.27 508.945 2414.01 539.216 2417.54 573.015 2416.28 604.537 2415.89 613.3 2415.43 621.437 2415.03 622.461L2414.41 624.566 2403.54 621.038C2381.23 613.926 2344.93 603.286 2313.81 594.523 2296.05 589.743 2281.66 585.362 2281.66 584.907 2281.66 583.655 2307.55 557.766 2318.59 547.979 2339.7 529.372 2396.88 485.103 2398.76 485.785L2398.76 485.785ZM2413.15 487.835C2413.78 487.21 2499.53 502.004 2538.56 509.514 2567.58 515.147 2609.74 523.91 2612.19 524.934 2613.44 525.333 2609.06 527.836 2595.06 534.095 2539.98 558.904 2499.07 581.265 2458.39 608.407 2447.75 615.519 2438.76 621.323 2438.59 621.323 2438.42 621.323 2438.19 615.291 2438.19 607.951 2438.19 568.292 2430.28 528.234 2415.66 494.436 2414.24 491.193 2412.98 488.063 2413.15 487.835ZM2634.95 531.648C2635.58 532.274 2632.84 549.174 2630.34 559.188 2622.83 590.255 2602.57 636.401 2577.77 679.816 2573.38 687.554 2569.4 693.813 2569 693.984 2568.6 694.212 2562.97 691.082 2556.49 687.327 2532.3 673.159 2504.76 659.787 2474.66 647.269 2466.3 643.741 2459.02 640.783 2458.79 640.384 2457.31 639.133 2524.51 594.694 2560.01 573.413 2588.24 556.286 2634.15 530.852 2634.95 531.648L2634.95 531.648ZM2650.83 534.152C2652.7 534.152 2690.66 544.565 2710.51 550.425 2759.56 565.049 2815.89 585.703 2852.59 602.375L2867.84 609.26 2857.2 611.764C2767.47 632.418 2690.71 656.203 2616.63 686.246 2610.6 688.749 2605.13 690.855 2604.74 690.855 2604.34 690.855 2606.39 686.075 2609.12 680.214 2631.42 632.874 2645.82 583.371 2649.4 541.265 2649.57 537.282 2650.2 534.152 2650.83 534.152L2650.83 534.152ZM2272.73 620.981C2273.35 620.356 2302.37 627.24 2318.02 631.622 2341.8 638.279 2392.27 655.178 2392.27 656.43 2392.27 656.658 2386.64 661.437 2379.98 667.298 2352.67 690.058 2326.38 714.013 2294.86 744.511 2285.47 753.502 2277.56 760.785 2277.11 760.785 2276.71 760.785 2276.48 759.533 2276.71 757.883 2281.49 722.832 2280.46 677.768 2273.81 632.077 2273.18 626.159 2272.55 621.152 2272.73 620.981ZM2882.24 621.607C2882.64 622.006 2868.87 643.741 2860.1 656.032 2847.59 673.955 2829.21 697.74 2787.67 749.917 2765.76 777.456 2741.13 808.524 2732.99 818.993 2724.62 829.406 2717.74 838.169 2717.57 838.169 2717.34 838.169 2714.67 834.413 2711.71 829.804 2688.32 794.754 2660.38 764.085 2627.21 736.545 2620.95 731.311 2614.07 725.677 2611.79 724.027 2609.52 722.377 2607.64 720.67 2607.64 720.5 2607.64 719.874 2643.09 704.624 2670 693.813 2717.17 674.638 2781.41 651.651 2829.61 636.857 2854.93 628.891 2881.84 621.152 2882.24 621.607L2882.24 621.607ZM2898.28 625.761C2899.14 625.533 2904.14 628.037 2910.18 631.622 2960.87 660.641 3010.55 697.967 3049.75 736.375 3060.79 747.243 3088.16 775.579 3087.7 775.806 3087.7 775.806 3078.09 776.66 3066.82 777.456 2978.97 784.114 2866.53 802.72 2758.42 828.78 2751.14 830.43 2744.65 831.91 2744.26 831.91 2743.86 831.91 2751.99 823.773 2762.18 813.986 2825.62 752.876 2854.64 714.241 2888.84 645.392 2893.73 635.15 2897.89 626.387 2898.28 625.761 2898.11 625.761 2898.11 625.761 2898.28 625.761L2898.28 625.761ZM2433.64 673.329C2436.54 673.955 2463.68 686.701 2484.11 696.886 2502.89 706.275 2531.05 721.296 2532.53 722.548 2532.76 722.776 2522.74 727.953 2510.4 734.042 2471.19 753.672 2437.56 772.222 2402.51 793.502 2392.5 799.534 2384.14 804.541 2383.96 804.541 2383.11 804.541 2383.34 803.687 2388.97 793.502 2407.75 759.305 2422.77 718.394 2431.31 678.507 2432.16 675.435 2433.01 673.329 2433.64 673.329L2433.64 673.329ZM2406.5 678.337C2407.12 678.963 2400.01 704.624 2395.63 718.622 2387.09 745.137 2372.7 778.31 2358.7 803.346 2355.34 809.207 2350.34 817.742 2347.66 822.521L2342.43 830.886 2330.76 819.619C2317.22 806.475 2306.13 798.339 2291.96 791.056 2286.32 788.154 2281.94 785.65 2281.94 785.195 2281.94 783.545 2317.62 751.169 2344.93 727.84 2364.56 710.883 2405.87 677.711 2406.5 678.337L2406.5 678.337ZM2572.36 746.56 2582.6 753.217C2605.99 768.466 2633.53 788.666 2654.58 806.419 2666.47 816.205 2689.4 836.86 2694.01 841.867L2696.52 844.598 2679.62 849.378C2584.02 875.893 2510.17 899.45 2424.02 931.2 2414.41 934.728 2406.27 937.687 2405.64 937.687 2404.39 937.687 2403.37 938.711 2424.82 918.91 2479.9 868.212 2528.72 812.279 2565.02 757.826L2572.36 746.56 2572.36 746.56ZM2528.77 757.428C2529.17 757.826 2500.61 798.111 2483.48 820.871 2463.06 848.012 2426.75 893.476 2401.66 923.12 2391.25 935.411 2382.26 945.653 2381.86 945.88 2381.23 946.108 2381.01 942.979 2381.01 938.142 2381.01 912.878 2374.52 885.965 2363.25 863.034 2358.47 853.418 2357.62 851.142 2358.64 850.118 2362.63 846.59 2423.34 811.938 2461.75 791.283 2487.64 777.456 2528.15 757.029 2528.77 757.428L2528.77 757.428ZM2265.04 822.123C2265.67 822.123 2270.45 824.627 2275.91 827.528 2289.28 834.812 2301.18 842.948 2311.82 851.711 2312.21 852.109 2306.81 856.491 2299.7 861.725 2279.89 875.893 2249.85 898.653 2232.33 912.651 2213.95 927.274 2213.32 927.672 2215.43 924.543 2229.2 903.49 2236.08 891.598 2243.36 876.349 2249.85 862.806 2256.28 846.704 2260.89 832.763 2262.54 826.732 2264.59 822.123 2265.04 822.123L2265.04 822.123ZM2335.31 877.202C2336.34 876.975 2337.59 878.852 2343.22 887.217 2355.12 904.969 2364.28 928.754 2366.61 947.929L2367.01 952.083 2338.44 963.121C2287.29 982.922 2240.18 1002.55 2208.26 1017.18 2199.27 1021.33 2183.62 1028.84 2173.43 1033.85 2163.19 1039.08 2154.89 1043.01 2154.89 1042.84 2154.89 1042.67 2161.37 1037.83 2169.28 1031.97 2231.7 986.678 2285.7 937.004 2326.21 887.387 2330.59 882.152 2334.58 877.373 2334.97 877.145L2335.31 877.202 2335.31 877.202ZM2303 885.111C2303.85 885.965 2280.07 912.878 2263.79 929.323 2223.51 970.404 2183.68 1002.55 2134.23 1033.85 2127.97 1037.83 2122.34 1041.36 2121.71 1041.76 2120.23 1042.61 2122.11 1040.51 2143.85 1016.95 2157.62 1002.15 2168.03 989.637 2179.92 974.16 2187.83 963.918 2189.31 962.495 2200.8 954.359 2231.42 932.281 2302.14 884.315 2303 885.111Z" fill="url(#fill3)"/><path d="M1399.4 1749.11C1395.6 1749.11 1391.7 1749.51 1387.9 1749.51 1310.2 1753.61 1257.7 1787.91 1227.1 1854.71 1200.9 1915.11 1203.7 1994.11 1227.4 2054.91 1254.9 2114.31 1299.3 2145.71 1373.5 2157.51 1389.2 2160.11 1399.7 2168.71 1430.1 2204.21L1467.5 2248.01 1535.3 2248.01 1490.2 2202.51C1465.3 2177.61 1445.1 2155.91 1445.1 2153.91 1445.1 2152.01 1454.6 2147.81 1466.2 2144.31 1504.3 2132.81 1535.9 2103.41 1558 2058.31 1575.9 2022.11 1578.5 2010.91 1581 1965.91 1587.8 1831.91 1517.1 1748.11 1399.4 1749.11L1399.4 1749.11 1399.4 1749.11ZM1458.9 2099.61C1425.9 2115.61 1378 2118.81 1346.7 2107.31 1314.4 2095.41 1283 2061.81 1269 2023.81 1253.3 1982.21 1255.6 1905.51 1273.5 1871.01 1302.3 1816.01 1340.4 1790.71 1396 1790.71 1478.5 1790.71 1525.4 1841.21 1531.6 1936.21 1536.3 2015.51 1509.8 2074.91 1458.9 2099.61L1458.9 2099.61ZM2630.9 1863.61C2602.4 1863.61 2580.7 1875.11 2566 1897.81L2554.5 1915.81 2554.5 1869.11 2505.3 1869.11 2505.3 2149.31 2554.5 2149.31 2554.5 2059.71C2554.5 1977.81 2555.5 1968.21 2567 1945.81 2582.8 1915.11 2609.9 1899.71 2636.1 1907.11L2653.7 1912.21 2653.7 1863.61 2630.9 1863.61 2630.9 1863.61 2630.9 1863.61ZM2341.5 1861.01C2331.9 1861.01 2321.6 1862.31 2311.4 1864.51 2245.5 1881.71 2208.4 1944.81 2210.6 2009.71 2210.6 2064.01 2221.2 2091.21 2247.4 2119.71 2301.1 2163.81 2349.7 2167.31 2415.3 2143.61 2426.5 2138.81 2438.7 2133.31 2438.7 2133.31L2438.7 2089.21 2415.3 2101.31C2362.2 2124.41 2322.3 2124.41 2290.2 2097.21 2269.8 2076.41 2260.8 2051.51 2256.6 2023.01L2455.2 2023.01 2455.2 1985.21C2455.3 1908.41 2409 1859.81 2341.5 1861.01L2341.5 1861.01 2341.5 1861.01ZM2261.2 1983.91C2261.2 1983.91 2268.5 1935.91 2295.7 1917.01 2308.8 1907.81 2323.8 1903.31 2338.5 1903.31 2353.2 1903.31 2367.9 1908.11 2380.1 1917.31 2405 1936.51 2409.2 1983.51 2409.2 1983.51L2261.1 1983.51 2261.2 1983.91 2261.2 1983.91 2261.2 1983.91ZM1073.9 1933.41C1020.5 1901.11 996.799 1877.71 999.699 1850.21 1008 1774.11 1102 1784.61 1154.1 1813.41L1154.5 1762.21C1154.5 1762.21 1125.7 1749.71 1084.5 1749.11 1021.2 1748.11 980.299 1768.91 961.099 1811.11 932.899 1873.41 957.899 1920.51 1048 1972.91 1098.6 2002.31 1121 2027.91 1121 2055.81 1121 2113.41 1051.6 2133.51 979.999 2097.31 965.299 2090.01 952.799 2083.81 952.099 2083.81 949.499 2100.11 950.899 2139.21 950.899 2139.21 950.899 2139.21 972.899 2148.41 1005.9 2154.81 1087.7 2171.11 1162.2 2132.71 1169.3 2070.41 1175.3 2011.91 1154.1 1981.21 1073.9 1933.41L1073.9 1933.41 1073.9 1933.41ZM3066.7 1860.41C3057.1 1860.41 3046.9 1861.71 3036.3 1864.01 2970.5 1881.21 2933.4 1944.31 2935.9 2009.21 2935.9 2063.51 2946.4 2090.41 2972.6 2118.81 3026.3 2162.91 3074.9 2166.51 3140.8 2142.81 3151.9 2138.01 3164.1 2132.61 3164.1 2132.61L3164.1 2088.41 3140.8 2100.61C3087.6 2123.61 3047.7 2123.61 3015.8 2096.41 2995.3 2075.61 2986.4 2051.01 2982.2 2022.21L3180.4 2022.21 3180.4 1984.41C3180.4 1907.81 3134 1859.11 3066.6 1860.41L3066.7 1860.41 3066.7 1860.41ZM2986.4 1983.21C2986.4 1983.21 2993.8 1935.21 3021 1916.01 3034.1 1906.71 3049.1 1902.21 3063.8 1902.21 3078.5 1902.21 3093.2 1907.01 3105.4 1916.31 3130.3 1935.51 3134.5 1982.81 3134.5 1982.81L2986.5 1982.81 2986.4 1983.21 2986.4 1983.21ZM2083.7 1934.01C2030.3 1901.71 2006.7 1878.31 2009.6 1850.81 2017.9 1774.71 2111.9 1785.21 2164 1814.01L2164.4 1762.81C2164.4 1762.81 2135.6 1750.31 2094.4 1749.71 2031.1 1748.71 1990.2 1769.51 1971 1811.71 1942.9 1874.01 1968.1 1921.11 2058 1973.51 2108.5 2002.91 2130.9 2028.11 2130.9 2056.01 2130.9 2113.61 2061.5 2134.01 1989.9 2097.51 1975.2 2090.21 1962.8 2084.11 1962 2084.11 1959.4 2100.41 1960.8 2139.51 1960.8 2139.51 1960.8 2139.51 1982.5 2148.41 2015.4 2155.11 2097.3 2171.51 2171.8 2133.11 2178.8 2070.81 2184.8 2012.71 2163.7 1982.01 2083.7 1934.01L2083.7 1934.01 2083.7 1934.01ZM3356.1 1863.01C3327.6 1863.01 3305.6 1874.51 3291.2 1897.31L3279.7 1915.21 3279.7 1868.61 3230.5 1868.61 3230.5 2148.71 3279.7 2148.71 3279.7 2059.01C3279.7 1977.11 3280.7 1967.51 3292.2 1945.21 3308 1914.51 3335.1 1899.11 3361.3 1906.51L3378.9 1911.61 3378.9 1863.01 3356.1 1863.01 3356.1 1863.01ZM1692.1 1932.41 1692.1 1754.01 1642.4 1754.01 1642.4 2149.21 1851.2 2149.21 1851.2 2102.51 1692.1 2102.51 1692.1 1932.41 1692.1 1932.41ZM2840.3 1988.01 2799.4 2094.51 2760 1987.41 2720 1868.71 2669.2 1868.71C2702.1 1962.11 2738 2057.01 2774.1 2149.11 2789.8 2149.51 2805.5 2149.11 2821.1 2149.11L2876.4 2010.31 2932.7 1868.71 2884.1 1868.71C2884.1 1868.81 2862.7 1925.01 2840.3 1988.01L2840.3 1988.01 2840.3 1988.01ZM1806.5 1646.21C1814.5 1646.21 1821.2 1643.61 1826.7 1638.11 1832.1 1632.71 1835 1626.31 1835 1618.31 1835 1610.31 1832.1 1603.61 1826.7 1598.51 1821.2 1593.41 1814.9 1590.81 1806.9 1590.81 1798.8 1590.81 1792.2 1593.41 1786.7 1598.81 1781.2 1604.21 1778.7 1610.91 1778.7 1618.61 1778.7 1626.71 1781.3 1633.31 1786.7 1638.41 1791.8 1643.61 1798.5 1646.11 1806.5 1646.21L1806.5 1646.21 1806.5 1646.21ZM1788.9 1600.71C1793.7 1595.91 1799.5 1593.71 1806.9 1593.71 1813.9 1593.71 1819.7 1595.91 1824.5 1600.71 1829.3 1605.51 1831.8 1611.31 1831.8 1618.31 1831.8 1625.31 1829.2 1631.41 1824.5 1636.21 1819.7 1641.01 1813.9 1643.21 1806.9 1643.21 1799.8 1643.21 1794.1 1641.01 1789.3 1636.21 1784.5 1631.41 1782 1625.31 1782 1618.31 1781.9 1611.31 1784.1 1605.51 1788.9 1600.71ZM1800.7 1620.91 1803.9 1620.91C1806.2 1620.91 1808.4 1623.11 1810.3 1627.31L1814.2 1636.01 1820.2 1636.01 1815.4 1626.41C1813.5 1622.61 1811.6 1620.31 1809.3 1619.71 1812.1 1619.01 1814.4 1618.11 1816 1616.21 1817.6 1614.61 1818.2 1612.31 1818.2 1609.81 1818.2 1606.91 1817.3 1604.71 1815.3 1603.11 1813.1 1601.31 1809.6 1600.31 1805 1600.31L1794.8 1600.31 1794.8 1636.11 1799.9 1636.11 1799.9 1621.11 1800.7 1620.91 1800.7 1620.91ZM1800.7 1604.31 1805.2 1604.31C1808.4 1604.31 1810.7 1605.01 1811.9 1605.91 1813.1 1606.91 1813.4 1608.11 1813.4 1610.41 1813.4 1614.51 1810.8 1616.51 1806.1 1616.51L1800.6 1616.51 1800.7 1604.31 1800.7 1604.31 1800.7 1604.31ZM980.499 1617.71C980.499 1605.21 980.099 1596.01 979.799 1590.51L980.099 1590.51C981.399 1596.91 982.999 1601.81 984.199 1604.91L1031.9 1711.41 1039.9 1711.41 1087.6 1604.01C1088.9 1601.11 1090.2 1596.71 1091.7 1590.51L1092.1 1590.51C1091.1 1601.11 1090.8 1610.41 1090.8 1617.71L1090.8 1711.71 1107.1 1711.71 1107.1 1572.01 1086.6 1572.01 1042.9 1669.31C1041.3 1673.11 1039 1678.91 1036.2 1686.51L1035.5 1686.51C1034.5 1682.71 1032.3 1677.01 1029.1 1669.91L986.299 1571.71 964.599 1571.71 964.599 1711.41 980.299 1711.41 980.299 1617.71 980.499 1617.71 980.499 1617.71ZM1143 1618.01 1157.1 1618.01 1157.1 1705.01 1143 1705.01 1143 1618.01ZM1150 1586.11C1152.9 1586.11 1155.4 1585.11 1157.3 1583.21 1159.2 1581.31 1160.5 1578.81 1160.5 1575.91 1160.5 1573.01 1159.5 1570.51 1157.3 1568.61 1155.3 1566.71 1152.8 1565.71 1149.9 1565.71 1147 1565.71 1144.5 1566.71 1142.6 1568.61 1140.7 1570.51 1139.4 1573.11 1139.4 1575.91 1139.4 1579.11 1140.4 1581.31 1142.6 1583.21 1144.8 1585.11 1147.1 1586.11 1150 1586.11L1150 1586.11 1150 1586.11ZM1257.4 1706.91 1257.4 1691.61C1249.7 1697.41 1241.4 1700.21 1232.8 1700.21 1222.5 1700.21 1214.2 1696.71 1208.1 1689.91 1202.1 1683.21 1198.8 1673.91 1198.8 1662.41 1198.8 1650.31 1202 1640.71 1208.7 1633.41 1215.1 1626.41 1223.4 1622.81 1233.6 1622.81 1241.9 1622.81 1249.9 1625.41 1257.3 1630.51L1257.3 1614.21C1250.6 1610.71 1242.9 1609.11 1234.3 1609.11 1218.3 1609.11 1205.8 1614.21 1196.5 1624.11 1187.3 1634.01 1182.5 1647.51 1182.5 1663.71 1182.5 1678.11 1186.6 1690.31 1195.3 1699.61 1204.3 1709.11 1215.8 1714.01 1229.8 1714.01 1240.8 1713.71 1249.7 1711.41 1257.4 1706.91L1257.4 1706.91ZM1297.7 1660.51C1297.7 1649.01 1300.3 1639.71 1305 1633.41 1309.5 1627.61 1314.9 1624.71 1321.3 1624.71 1326.7 1624.71 1330.6 1625.71 1333.4 1627.91L1333.4 1611.21C1331.2 1610.21 1328 1609.91 1323.9 1609.91 1318.1 1609.91 1313 1611.81 1308.5 1615.41 1303.7 1619.21 1299.9 1624.91 1297.7 1632.31L1297.3 1632.31 1297.3 1612.01 1281.3 1612.01 1281.3 1711.71 1297.3 1711.71 1297.3 1660.51 1297.7 1660.51ZM1389.5 1713.71C1404.5 1713.71 1416.6 1708.91 1425.6 1699.31 1434.5 1689.81 1439 1676.91 1439 1660.91 1439 1644.61 1434.9 1632.11 1426.5 1622.81 1418.2 1613.51 1406.7 1609.01 1391.7 1609.01 1376.7 1609.01 1364.6 1613.51 1355.6 1622.11 1346 1631.61 1340.9 1645.11 1340.9 1662.41 1340.9 1677.41 1345 1689.91 1353.7 1699.21 1362.7 1708.91 1374.5 1713.71 1389.5 1713.71L1389.5 1713.71 1389.5 1713.71ZM1366.8 1632.41C1372.9 1626.01 1380.9 1622.81 1390.8 1622.81 1401.1 1622.81 1408.8 1626.01 1414.5 1632.41 1420.3 1639.11 1423.1 1648.71 1423.1 1661.51 1423.1 1673.71 1420.5 1683.21 1415.1 1689.71 1409.7 1696.41 1401.7 1700.01 1391.1 1700.01 1380.8 1700.01 1372.9 1696.41 1366.8 1689.71 1360.8 1683.01 1357.9 1673.71 1357.9 1661.51 1357.2 1649.41 1360.4 1639.51 1366.8 1632.41L1366.8 1632.41ZM1509.1 1705.01C1515.2 1699.61 1518.4 1692.91 1518.4 1684.51 1518.4 1677.21 1515.8 1671.11 1511.1 1666.31 1507.2 1662.51 1501.2 1659.01 1492.5 1655.41 1484.8 1652.21 1480 1649.31 1477.5 1647.11 1474.9 1644.51 1473.4 1641.31 1473.4 1636.81 1473.4 1632.71 1475 1629.51 1478.2 1626.91 1481.4 1624.31 1485.5 1623.11 1491 1623.11 1499.6 1623.11 1507 1625.41 1513.7 1630.21L1513.7 1614.21C1507.2 1611.01 1500.2 1609.41 1492.2 1609.41 1481.9 1609.41 1473.3 1612.21 1466.9 1617.71 1460.2 1623.11 1457 1630.21 1457 1638.51 1457 1645.81 1459.2 1651.91 1463.4 1656.41 1466.9 1660.21 1472.9 1664.11 1481.3 1667.61 1489.3 1671.11 1494.7 1674.31 1497.6 1676.91 1500.5 1679.51 1501.7 1682.71 1501.7 1686.41 1501.7 1695.71 1495.3 1700.51 1482.9 1700.51 1473.3 1700.51 1464.7 1697.31 1457 1691.01L1457 1708.21C1464 1712.41 1472.3 1714.31 1481.6 1714.31 1493.3 1713.71 1502.6 1710.81 1509.1 1705.01L1509.1 1705.01 1509.1 1705.01ZM1585.2 1609.11C1570.2 1609.11 1558.1 1613.61 1549.1 1622.21 1539.6 1631.71 1534.4 1645.21 1534.4 1662.51 1534.4 1677.51 1538.5 1690.01 1547.2 1699.31 1556.2 1708.91 1568 1713.71 1583 1713.71 1598.4 1713.71 1610.1 1708.91 1619.1 1699.21 1628.1 1689.71 1632.6 1676.81 1632.6 1660.81 1632.6 1644.51 1628.4 1632.01 1620.1 1622.71 1611.5 1613.51 1599.9 1609.01 1585.2 1609.11L1585.2 1609.11 1585.2 1609.11ZM1616.2 1661.51C1616.2 1673.71 1613.6 1683.21 1608.2 1689.71 1602.8 1696.41 1594.8 1700.01 1584.2 1700.01 1573.9 1700.01 1566 1696.41 1559.9 1689.71 1553.9 1683.01 1551 1673.71 1551 1661.51 1551 1648.71 1554.2 1638.81 1560.6 1632.11 1566.6 1625.71 1574.6 1622.51 1584.6 1622.51 1594.5 1622.51 1602.5 1625.71 1608.2 1632.11 1613.3 1639.11 1616.2 1648.71 1616.2 1661.51L1616.2 1661.51 1616.2 1661.51ZM1659.4 1711.41 1675.4 1711.41 1675.4 1625.01 1698.8 1625.01 1698.8 1611.61 1675.4 1611.61 1675.4 1596.21C1675.4 1582.21 1680.8 1575.21 1692 1575.21 1695.8 1575.21 1699.6 1576.21 1702.5 1577.81L1702.5 1563.41C1699.6 1562.11 1695.8 1561.81 1691 1561.81 1682.4 1561.81 1675.3 1564.41 1669.6 1569.81 1662.9 1576.21 1659.3 1584.51 1659.3 1595.71L1659.3 1612.11 1642.4 1612.11 1642.4 1625.51 1659.3 1625.51 1659.3 1711.51 1659.4 1711.41ZM1725 1684.21C1725 1703.71 1733.6 1713.61 1751.2 1713.61 1757.6 1713.61 1762.4 1712.61 1766.2 1710.31L1766.2 1696.61C1763.3 1698.81 1759.8 1699.81 1755.9 1699.81 1750.5 1699.81 1746.7 1698.51 1744.4 1695.61 1742.1 1692.71 1740.8 1687.91 1740.8 1681.21L1740.8 1625.01 1766.1 1625.01 1766.1 1611.61 1740.9 1611.61 1740.9 1582.21C1735.4 1584.11 1730 1585.71 1724.9 1587.31L1724.9 1611.61 1707.7 1611.61 1707.7 1625.01 1724.9 1625.01 1725 1684.21 1725 1684.21ZM3441.2 1868.11C3435.8 1863.01 3429.4 1860.41 3421.4 1860.41 3413.3 1860.41 3406.7 1863.01 3401.2 1868.51 3395.8 1873.91 3393.2 1880.61 3393.2 1888.31 3393.2 1896.31 3395.8 1903.01 3401.2 1908.11 3406.6 1913.21 3413.3 1915.81 3421.4 1915.81 3429.4 1915.81 3436.1 1913.21 3441.6 1907.81 3447 1902.31 3449.9 1896.01 3449.9 1888.01 3449.5 1879.91 3446.6 1873.21 3441.2 1868.11L3441.2 1868.11ZM3438.6 1905.91C3433.8 1910.71 3428 1912.91 3421 1912.91 3414 1912.91 3408.2 1910.71 3403.4 1905.91 3398.6 1901.11 3396.1 1895.01 3396.1 1887.91 3396.1 1880.91 3398.3 1875.11 3403.1 1870.31 3407.9 1865.51 3413.6 1863.31 3421 1863.31 3428 1863.31 3433.8 1865.51 3438.6 1870.31 3443.4 1875.11 3445.9 1880.91 3445.9 1887.91 3445.9 1895.31 3443.7 1901.01 3438.6 1905.91ZM3424.2 1889.51C3427.1 1888.81 3429.3 1887.61 3430.9 1886.01 3432.5 1884.31 3433.1 1882.11 3433.1 1879.51 3433.1 1876.61 3432.2 1874.41 3430.2 1872.81 3428 1871.01 3424.4 1870.01 3419.9 1870.01L3409.7 1870.01 3409.7 1905.81 3414.8 1905.81 3414.8 1890.81 3418 1890.81C3420.2 1890.81 3422.4 1893.01 3424.4 1897.21L3428.2 1905.81 3434.3 1905.81 3429.5 1896.21C3428 1892.01 3426.1 1890.11 3424.2 1889.51L3424.2 1889.51 3424.2 1889.51ZM3420.7 1886.31 3415.2 1886.31 3415.2 1874.21 3419.7 1874.21C3422.9 1874.21 3425.1 1874.81 3426.4 1875.81 3427.7 1876.81 3428 1878.01 3428 1880.31 3428 1884.41 3425.5 1886.31 3420.7 1886.31L3420.7 1886.31 3420.7 1886.31ZM2528.5 1607.51 2533 1607.51 2533 1571.71 2544.8 1571.71 2544.8 1567.21 2516.6 1567.21 2516.6 1571.71 2528.4 1571.71 2528.5 1607.51 2528.5 1607.51ZM2555.7 1580.61C2555.7 1577.11 2555.7 1574.31 2555.4 1572.61 2555.7 1574.51 2556.4 1575.81 2556.6 1576.71L2570.4 1607.41 2572.6 1607.41 2586.4 1576.41C2586.8 1575.41 2587.1 1574.21 2587.7 1572.61 2587.4 1575.81 2587.4 1578.41 2587.4 1580.31L2587.4 1607.41 2592.2 1607.41 2592.2 1567.11 2586.4 1567.11 2573.9 1595.01C2573.6 1596.01 2572.6 1597.91 2572 1600.11L2571.6 1600.11C2571.3 1598.81 2570.7 1597.51 2569.8 1595.31L2557.3 1567.11 2550.8 1567.11 2550.8 1607.41 2555.3 1607.41 2555.3 1580.51 2555.7 1580.61 2555.7 1580.61Z" fill="#231F1F"/><rect x="866" y="151" width="2630" height="2132" fill="#FFFFFF"/><g clip-path="url(#clip4)"><g clip-path="url(#clip5)"><g clip-path="url(#clip6)"><path d="M938.296 1025.8C931.138 1035.97 925.107 1044.35 919.3 1052.81 826.693 1189.11 734.117 1325.39 641.57 1461.66 555.475 1588.42 469.29 1715.1 383.015 1841.71 380.12 1845.73 375.653 1848.33 370.727 1848.86 248.922 1847.81 127.147 1846.49 5.40156 1844.9 4.05117 1844.9 2.65577 1844.5-1.14941e-13 1844.09 0.983316 1841.55 2.12591 1839.07 3.42099 1836.66 88.3755 1704.96 173.33 1573.28 258.284 1441.63 333.636 1324.96 409.033 1208.31 484.475 1091.7 568.079 962.122 651.638 832.455 735.152 702.698 747.486 683.567 760.314 664.797 772.018 645.306 775.019 640.089 775.92 633.924 774.538 628.066 752.032 556.315 729.075 484.745 706.164 413.174 696.351 382.52 686.088 352.047 676.905 321.213 673.934 311.31 669.028 308.294 658.9 308.339 582.378 308.654 506.306 308.564 430.009 308.564 415.515 308.564 415.47 308.564 415.47 294.25 415.47 200.443 415.47 106.636 415.2 12.8287 415.2 2.38569 418.621 0.045013 428.434 0.045013 582.048 0.315091 735.692 0.315091 889.366 0.045013 896.749-0.899061 903.686 3.78306 905.571 10.9832 986.595 214.772 1067.62 418.486 1148.64 622.124 1243.17 859.613 1337.7 1097.13 1432.22 1334.68 1461.57 1408.41 1491.14 1482.1 1520.18 1556.01 1523.64 1565.01 1527.25 1566.72 1536.34 1563.93 1616.87 1539.04 1697.57 1514.82 1778.06 1489.88 1788.19 1486.73 1791.88 1488.85 1795.03 1498.89 1822.49 1585.18 1850.48 1671.29 1878.3 1757.49 1879.25 1760.46 1879.97 1763.47 1881.09 1767.61 1875.33 1769.73 1869.93 1772.12 1864.39 1773.65 1681.34 1831.65 1498.39 1889.69 1315.55 1947.76 1306.82 1950.5 1304.21 1947.53 1301.28 1940.19 1245.43 1798.67 1189.45 1657.21 1133.34 1515.81 1078.45 1377.35 1023.54 1238.89 968.589 1100.43 960.352 1079.64 952.25 1058.75 944.012 1037.95 942.707 1034.4 940.906 1031.29 938.296 1025.8Z" fill="#FA7E14" transform="matrix(1 0 0 1.00026 1247.76 241.992)"/></g></g></g></g></svg>